<svg id="Layer_1" data-name="Layer 1" xmlns="http://www.w3.org/2000/svg" viewBox="0 0 1069.93 516.57">
  <defs>
    <style>
      .cls-1 {
        fill: #afa054;
      }

      .cls-2 {
        fill: #fff;
      }
    </style>
  </defs>
  <g>
    <path class="cls-1" d="M144.18,68.68c-14.8-6.57-24.08-21.67-19.16-37.83,3.05-9.99,13.09-19.06,23.79-19.78,34.12-2.29,40.86,46.02,9.86,56.75l-.54,74.05c9.84,1.65,19.68,2.57,29.44,4.79,89.18,20.32,140.37,119.38,104.09,204.33-22.77,53.33-78.01,93.64-137.1,91.61l1.03,12.99,23.87,9.83c-8.6-1.06-17.16-3.41-24.89-7.25v36.82c0,3.45-4.99,11.29-6.12,3.02-1.74-12.79.4-29.07-1.3-42.27-5.43-2.69-9.43-10.68-13.23-13.74-2.28-1.83-25.57-7.17-31.17-9.29C12.43,398.56-20.49,289.84,31.31,208.9c15.79-24.67,45.48-49.86,73.44-58.81.39-1.62-.26-1.66-1.11-2.51-2.72-2.75-6.78-4.4-9.79-7.84-23.07-26.33,21.75-47.65,42.02-53.95v25.41c-7.46,3.86-25.74,6.54-22.37,18.25,1.64,5.7,24.77,10.58,30.67,12.35v-73.13ZM148.04,23.8c-21.71,4.44-9.93,42.11,11.39,29.02,13.54-8.32,5.73-32.52-11.39-29.02ZM87.12,247.6c3.68-31.4,14.35-64.09,33.18-89.75l-1.52-2.52c-24.29,7.53-48.34,22.56-65.38,41.43-2.5,2.77-11.81,13.72-12.44,16.5-2.77,12.19,35.23,33.31,46.16,34.34ZM138.99,236.19v17.63c0,.31-5.16.69-5.19,3.1l11.41.02-.98-93.76c-4.89-1.28-10.95-5.69-15.15-1.71-1.62,1.54-5.01,6.82-6.5,9.05-10.13,15.13-16.3,33.14-20.86,50.71-1.1,4.26-7.22,27.87-4.67,29.6l12.23,2.75c2.6-2.64,28.24-19.05,29.69-17.39ZM212.64,251.76c12.35.03,58.02-20.78,58.02-33.72,0-4.83-20.74-26.55-25.38-30.57-11.18-9.69-24.11-17.35-37.82-22.85l14.36,14.15c9.01,17.84,2.54,37.09-12.94,48.55l3.76,24.43ZM162.85,226.86c4.35-.75,31.57-13.81,31.91-16.04-4.8-13.46-9.26-28.42-18.49-39.39l-18.6-4.74-1.05,91.29c15.64.11,31.31-1.18,46.6-4.23l-3.04-21.71-37.33,14.52v-19.71ZM204.32,204.04c.44-.41,3.13-8.6,3.18-9.89.27-8.45-7.1-14.03-14.56-16.04,3.71,7.78,5.7,16.67,9.23,24.47.42.93.39,3.11,2.16,1.45ZM84.94,256.01c-20.18-5-37.69-16.16-50.7-32.26-2.57,7.05-6.49,13.42-9.09,20.49-6.31,17.15-11.28,45.98-7.27,63.8,5.04,22.43,51.02,37.69,71.32,40.18-3.89-18.27-4.66-36.86-6.26-55.44l2.01-36.76ZM210.57,351.33c23.58-4.57,52.43-9.82,71.02-25.96,6.9-5.99,10.22-9.64,10.96-19.12,2.15-27.77-2.86-54.75-15.61-79.38-15.74,19.45-39.52,27.56-62.82,34.17l1.67,45.22-5.22,45.07ZM146.25,354.44v-33.71c-17.03-16.42-54.73-30.09-43.56-59.63l-8.29-2.08c-1.59,23.27-2.05,47.75,1.16,70.91.45,3.23,2.5,17.65,3.52,19.3.66,1.09,2.15,1.53,3.34,1.85,4.68,1.26,42.28,4.91,43.84,3.36ZM204.33,262.13c-15.68,2.88-31.72,4.23-47.71,4.14l-1.05,49.06c12.71,9.38,27.24,21.43,19.73,39.1l24.12-2.06,1.12-1.26c2.57-17.63,5.54-35.34,4.78-53.24l.98-5.26-1.98-30.49ZM145.16,266.33l-20.97-1.98c-18.03,16.22,9.94,33.1,21.54,42.39l-.56-40.41ZM155.59,328.51v25.93l11.3-.11c2.35-7.95,1.85-14.14-4.08-20.11l-7.22-5.7ZM122.38,429.12l-17.09-28.02c-6.09-13.51-10.3-27.71-13.95-42.06-18.62-3.37-38.17-8.56-54.7-17.91-1.81-1.02-14.23-10.12-14.86-9.5,14.84,48.02,51.9,84.46,100.6,97.49ZM172.18,432.23c41.32-5.4,77.03-29.38,98.97-64.39,2.77-4.42,17.38-31.06,15.12-34.14-22.72,16.85-51.07,23.79-78.63,28.19-6.16,26.17-17.33,50.4-35.45,70.34ZM146.26,364.81l-44.62-2.57c5.48,18.97,12.27,36.7,22.85,53.4l2.06-.51c-.45-13.65,4.07-30.8,14.51-39.93,1.53,11.51-6.35,18.66-8,29.85-.36,2.47-1.61,14.55-1.34,16.24.6,3.87,11.17,9.73,15.05,10.96l-.5-67.44ZM154.55,430.16c25.65-10.41,36.18-42.68,42.51-67.42-5.16,1.06-10.83,1.66-16.08,2.06-8.5.65-14.13-2.17-20.74,5.19l.03-4.15-4.2-.02-1.52,64.33ZM147.29,442.6l-6.23.02,5.71,7.25.52-7.26Z"/>
    <path class="cls-1" d="M167,104.46c-2.62-8.33.53-16.84-1.04-24.89,2.28-2.53,40.14-.89,45.44.72,11.45,3.47,36.38,23.41,23.98,36.02-10.96,11.14-38.15,2.11-44-11.85h-24.38Z"/>
  </g>
  <g>
    <polygon class="cls-2" points="379.92 345.7 379.92 172.46 419.76 172.46 492.02 279 492.02 172.46 533.71 172.46 533.71 345.7 496.19 345.7 421.61 240.09 421.61 345.7 379.92 345.7"/>
    <path class="cls-2" d="M699.17,267.8c-6.16-8.26-15.48-13.36-28.08-13.36h-2.78c22.64,0,32.62-18.35,32.62-40.99,0-11.32-4.58-21.56-12.01-28.99-7.42-7.42-17.66-12-28.98-12h-92.88v173.24h95.66c25.19,0,45.62-20.43,45.62-45.63,0-12.6-3.01-24.01-9.17-32.27ZM607.3,202.35h36.6c11.45,0,20.73,9.27,20.73,20.72,0,5.73-2.32,10.9-6.07,14.66-3.75,3.75-8.94,6.07-14.67,6.07h-36.6v-41.45ZM667.55,307.83c-3.84,3.86-9.16,6.23-15.03,6.23h-44.43v-42.53h44.43c11.74,0,21.26,9.52,21.26,21.26,0,5.87-2.38,11.19-6.23,15.03Z"/>
    <path class="cls-2" d="M794.96,172.46h-62.99v173.24h62.99c23.92,0,45.58-9.7,61.25-25.37,15.67-15.67,25.37-37.33,25.37-61.25,0-47.85-38.78-86.62-86.62-86.62ZM828.92,296.9c-9.62,9.62-22.89,15.56-37.55,15.56h-20.31v-106.21h20.31c29.32,0,53.11,23.77,53.11,53.11,0,14.67-5.94,27.94-15.56,37.55Z"/>
    <path class="cls-2" d="M1023.05,293.39c-8.03,14.2-20.81,23.39-35.19,23.39-24.29,0-43.98-26.16-43.98-58.43s19.69-58.43,43.98-58.43c13.01,0,24.7,7.51,32.75,19.44l26.36-20.68c-14.88-19.19-36.83-31.33-61.31-31.33-44.85,0-81.21,40.74-81.21,91s36.36,91,81.21,91c25.93,0,49.03-13.62,63.89-34.82l-26.49-21.14Z"/>
  </g>
</svg>