<?xml version="1.0" encoding="UTF-8"?>
<svg id="Layer_1" data-name="Layer 1" xmlns="http://www.w3.org/2000/svg" viewBox="0 0 1552.23 961.15">
  <defs>
    <style>
      .cls-1 {
        fill: #c62a2e;
      }

      .cls-2 {
        fill: #2f9cd4;
      }
    </style>
  </defs>
  <g>
    <path class="cls-1" d="M496.86,526.15c-50.35-9.79-43.12-57.36-24.44-93,39.91-74.62,111.13-125.17,166.07-187.45-.42-4.8-29.26-30.42-34.45-35.89-8.43-8.9-15.99-18.78-24.49-27.69-27.24-28.58-55.54-56.66-82.74-85.38-1.64-1.83-1.94-5.43.82-6.33l140.12.16c6.38,1.25,6.72,6.17,10.3,9.61,27.11,26.08,53.14,53.06,79.02,80.35l3.49,1.15c25.8-15.03,50.87-31.36,76.45-46.71,48.44-29.05,97.61-57.89,147.06-87.05,24.9-14.68,81.34-53.23,83-47.3,1.02,3.66-310.97,299.18-453.46,445.29-8.9,11.14-16.53,26.41,1.67,33.43,16.39,6.32,55.02-.46,72.13-5.92,7.33,2.6,3.27,9.46-.77,12.96l-2.4-.13c-14.01,7.9-28.22,15.06-42.64,21.49l-10.04,1.69c-2.12,2.4-5.01,3.38-8.67,2.94-8.24,4.03-17.39,7.76-27.12,8.92-1.94,3.22-31.35,7.34-33.22,7.61-7.34,1.08-16.65.58-23.96-.39-.78-.02-1.57.04-2.34,0l-9.37-2.34Z"/>
    <path class="cls-2" d="M657.4,473.42c34.31-10.94,70.85-26.68,103.56-42.34,4.68-2.24,36.71-17.87,37.73-19.74.91-1.68.24-1.77-.6-2.99-3.57-5.18-12.56-11.93-17.08-16.93-9.34-17.98-29.05-30.33-40.4-46.31-4.33-6.1-2.09-8.25,2.3-12.93,11.94-12.74,58.23-56.21,65.21-63.7,6.84-4.07,9.59,3.78,13.31,7.52,23.8,23.95,47.84,47.58,71.17,71.91,3.03.77,16.04-11.78,18.97-14.64,19.71-19.21,56.38-62.67,58.57-90.25,1.23-15.45-5.86-23.09-19.83-27.93-18.77-6.5-50.8,1.19-70.27,5.8-3.97.94-21.95,8.67-23.41,3.46-1.36-4.85,44.88-46.65,57.44-58.54,15.45-14.63,16.27-11.8,36.92-12.23,34.9-.73,91.15,1.74,90.87,49.74-.31,54.43-82.57,126.92-122.86,158.75-73.95,58.44-159.86,100.59-248.43,133.33-51.03,18.86-100.52,34.98-155.57,34.3-1.98-.02,12.28-.21,17.33-1.24,1.01-.21,27.44-7.23,27.8-6.99,2.66,1.77,95.63-44.28,97.27-48.04Z"/>
    <path class="cls-2" d="M960.14,422.62c2.62,2.66,6.48,5.35,9.03,7.95,21.06,21.54,40.65,44.51,62.69,65.12,1.36,2.28-1.43,4.26-3.61,4.65l-137.96-.25c-2.36-1.04-4.22-2.76-6.17-4.37-15.32-12.63-28.58-29.66-41.99-44.14-3.53-3.81-15.99-11.05-13.1-16.83,1.66-3.32,28.49-17.66,33.74-21.11,4.44-2.92,9.48-6.43,14.14-9.55,5.87-3.93,32.95-25.21,36.65-25.58,1.71-.17,3.29-.12,4.64,1.12,14.46,13.85,27.92,28.76,41.94,43.01Z"/>
  </g>
  <path class="cls-1" d="M253.85,844.43c-6.95,2.78-9.79,15.89-17.79,11.05-17.81-20.08-38.18-37.62-56.82-56.87-7.93-8.2-28.79-29.28-33.74-37.71-6.63-11.31,2.26-14.71,8.59-22,2.08-2.4,12.85-15.14,13.75-15.64,1.3-.72,4.28-6.82,9.13-9.04,5.88-2.69,7.8,5.05,11.09,8.8,25.28,28.78,53.92,54.97,80.16,82.72,2.66,2.81,9.86,10.21,9.31,13.68s-19.65,21.23-23.69,25.01Z"/>
  <g>
    <path class="cls-1" d="M710.71,842.54c.57.09,2.8,1.25,2.97,1.98,1.24,5.23-1.08,23.71-7,25.63-16.2.74-74.82-2.28-87.42-.71-10.79,1.35-8.47,17.59-2.26,18.77,24.39,1.86,52.15-2.4,76.12.05,8.95.91,16.95,6.42,20.21,14.94,2.67,6.99,2.32,34.15-.08,41.49-2.84,8.69-12.45,14.03-21.29,15.04-30.89,3.52-68.1-2.69-99.68.06-11.42,1.43-6.01-24.92.31-26.78l88.79-.27c8.43-1.57,7.52-17.56,1.21-18.72-4.31-.79-11.61.15-16.45.06-19.79-.36-42.3,2.21-62.09-.03-6.35-.72-15.75-8.57-18.36-14.46-5.79-13.07-5.22-40.52,6.65-50.02,3.14-2.51,7.99-7.03,16.42-7.03h101.95Z"/>
    <path class="cls-2" d="M158.78,959.73c-4.18-1.28-.46-7.26,1.15-9.4,7.71-10.22,25.5-23.41,35.35-33.2,28.79-28.59,56.89-57.83,85.71-86.22,1.59-1.26,3.22-2.54,5.42-2.44,5.28.23,23.03,22.99,28.8,26.62,1.5,2.56,1.62,5.62.32,8.28-12.11,12.08-25.1,23.39-37.25,35.37-17.12,16.89-35.81,39.1-53.41,54.43-1.21,1.06-10.38,6.56-11.02,6.56h-55.08Z"/>
    <path class="cls-1" d="M344.08,885.18c14.67,14.84,28.36,30.62,42.63,45.83,4.58,4.88,18.57,16.6,21.14,21.03,1.13,1.95,2.22,5.62,0,7.17-4.06,2.84-62.26-.92-71.89.27-2.55-2.47-6.2-4.88-8.62-7.2-8.97-8.58-30-29.55-36.73-38.85-3.86-5.32-4.65-6.96-.5-12.24l34.55-32.3c4.14-1.43,15.84,12.68,19.41,16.29Z"/>
    <path class="cls-1" d="M558.79,906.58c-1.66-2.82-6.87-5.66-6.94-6.12-.43-2.86,5.78-7.83,7.34-11.41,4.02-9.28,2.78-28.41-3.68-36.36-.83-1.02-3.35-3.49-5.54-5.24-2.07-1.64-13.19-4.61-16.18-4.92-28.21-2.92-64.46.55-93.81.06-8.75-.15-16.45-5.12-16.84,8.86-.96,33.91,2.98,68.89,1.01,103.06-.01,3.26,1.97,5.27,5.27,5.27,36.94-3.06,79.94,3.87,116.14.01,20.68-2.19,21.74-38.85,13.23-53.21ZM455.49,868.56l68.8-.13c13.86,1.96,13.14,21.2-1.17,22.05l-66.69.11c-5.93-1.08-5.87-20.58-.94-22.03ZM535.27,930.77c-1.29,5.51-8.4,6.23-13.24,6.67-20.76,1.85-44.28-1.11-65.34-.23-6.84-.28-5.79-21.59-1.2-22.94l70.97.05c7.8,1.41,10.52,9.19,8.81,16.46Z"/>
    <path class="cls-1" d="M50.03,842.77c4.25-1.28,23.42-2.13,23.55,5.3,2.51,24.08-2.49,52.38.22,75.94.5,4.31,1.87,7.05,6.41,7.65,19.52,2.58,48.92-.7,69.15-1.29,4.76-.14,13.86.09,10.59,7.08-.61,1.31-18.82,19.38-20.56,20.47-2.51,1.58-3.49,1.61-6.34,1.87-20.11,1.84-60.82,1.8-80.97,0-2.12-.19-5.81-.39-6.99-2.39s-.73-20.08-.62-24.08c.58-21.91.03-43.81,1.21-65.59.3-5.61-1.93-23.07,4.34-24.96Z"/>
  </g>
  <g>
    <path class="cls-2" d="M342.45,680.56c5.34,5.38,134.07-1.89,151.59,2.5,1.42,1.12,1.49,2.52,1.7,4.16,1.13,8.94-.15,22.19-.11,31.74.02,5.25,3.29,10.59-2.27,15.2h-148.28c-4.56-.6-3.18,9.26-2.78,12.75,1.02,8.88,3.81,19.92,13.41,22.92l151.7.64c4.85,3.36,2.26,6.41,2.3,10.5.05,6.01,1.02,36.26-1.01,38.84-1.43,1.81-3.34,1.52-5.32,1.71-21.69,2.11-48.41-.85-70.58-.8-28.86.07-60.28,2.47-88.91.78-26.72-1.58-51.74-13.18-56.85-41.58,3.25-47.67-4.13-100.66.08-147.7,2.53-28.27,23.95-37.89,49.74-39.32,46.66-2.58,97.24.38,144.24.11,5.56-.03,24.04-2.43,27.5.51,2.24,1.9,1.01,28.7,1.11,34.04.17,8.79,5.47,17.65-8.7,18.16h-147.64c-11.89-.13-14.84,30.89-10.92,34.84Z"/>
    <path class="cls-2" d="M720.67,595.87c.07-.43,1.12-2.32,1.5-2.62,3.45-2.71,27.98-1.3,34.29-1.44s20.6-5.08,22.53,3.14c-1.31,16.31-.54,32.66-.86,49.01-.96,49.7-1,99.04,0,148.73.11,5.31,1.24,24.49-2.44,26.95-3.98,2.66-31.72,2.28-38.02,1.79-16.36-1.27-22.09-8.86-32.84-19.9-37.88-38.9-70.85-83.49-108.95-121.9-.96-.97-1.91-2.57-3.51-2.32l-.84,140.96c-.88,2.56-2.59,2.9-4.98,3.22-13.71,1.82-32.22-1.04-46.41-.57-4.11-1.23-4.34-6.84-4.66-10.57-.72-8.32.03-17.6.05-25.82.06-27.75,1.22-55.55,1.22-83.15,0-34.72-.71-69.37-.91-104.06.18-.8,1.76-3.55,2.37-4.04,3.59-2.9,22.24-.32,28.42-.3,7.5.02,13.64-2.52,21.9,1.2,38.78,39.36,74.81,81.65,113.36,121.22,4.05,4.15,11.17,12.08,15.27,15.23,1.18.91,1.48,2.26,3.52,1.75v-136.52Z"/>
    <path class="cls-2" d="M1549.95,810.68c1.8,4.47,5.08,9.92-2.49,10.83-15.96,1.93-36.14-1.37-52.56-.31-1.52-.44-3.93-3.15-4.82-4.56-3.15-4.99-7.17-19.45-10.39-23-.95-1.04-2.58-1.11-3.86-1.39l-104.27-.06c-3.25-.05-5.35-1.87-5.2-5.19.09-1.96,14.03-32.84,15.91-35.77,1.04-1.62,2.53-2.99,4.03-4.17,9.02-3.27,65.22,1.97,67.82-1.9,1.85-2.76-2.91-8.18-3.87-10.57-9.74-24.33-21.62-48.54-33-72.52-.65-1.37.17-2.86-2.27-2.36-20.85,43.42-38.57,88.41-58.98,132.04-2.33,4.98-10.53,24.06-13.08,26.77-1.94,2.07-3.69,2.62-6.44,2.93-9.99,1.16-40.72,1.34-50.47.03-4.35-.59-6.22-2.75-4.71-7.1,31.9-64.83,60.53-131.19,92.2-196.12,2.13-4.37,10.79-23.11,13.08-25,4.55-3.76,53.39-2.71,58.22.29,3.05,1.9,81.03,157.43,105.13,217.11Z"/>
    <path class="cls-2" d="M879.88,645.84c-1.48-.92-59.68,1.84-75.47-.11-2.23-.27-6.26-1.7-6.48-4.12.16-10.86.18-21.85-.37-32.63-.54-10.6-6.13-16.21,9.2-17.25,5.64-.38,146.54.17,212.16-.06,14.86-.05,3.85,22.8,6.43,32.32-2.97,8.91,2.49,19.46-9.89,20.57-22.26,1.99-50.13-2.96-71.59-.11-9.42,1.25-.79,133.3-3.99,168.27-.33,3.58-.67,6.92-4.67,8.22-4.32,1.4-39.24,1.24-45.21.54-3.34-.39-5.84-1.25-7.08-4.64-1.47-37.7-.59-169.47-3.03-170.99Z"/>
    <path class="cls-2" d="M1.17,821.45c-2.04-2.09,3.4-7.87,4.76-9.61,7.55-9.71,116.29-126.6,160.45-178.5,9.68-11.37,19.55-26.85,30.14-36.91,8.16-7.74,52.24-3.45,65.39-3.42,4.16,0,16.05-.44,15.86,2.86-.16,2.77-30.25,33.22-34.62,38.06-21.58,23.91-43.16,47.39-65.08,70.85-30.59,32.74-56.24,70.03-87.29,101.34-3.27,3.3-12.76,15.31-17.53,15.31H1.17Z"/>
    <path class="cls-1" d="M102.36,628.86c8.59,9.86,19.65,20.17,27.04,30.95,1.02,1.49,2.92,4.48,2.76,6.19-.4,4.35-27.86,29.38-31.91,34.81-1.89,1.39-4.64,1.54-6.83,1.07-1.79-.39-21.08-24.12-24.23-27.57-18.55-20.28-37.3-40.76-55.71-61.47-3.21-3.61-14.79-12.33-13.37-16.78,1.68-5.29,35.63-2.91,46.12-3.17,5.54-.14,18.39-.85,22.97.57,6.83,2.11,27.25,28.61,33.16,35.4Z"/>
    <path class="cls-2" d="M1233.35,741.76c25.36,0,43.52-25.43,45.17-48.57.93-13.14.04-33.23-.29-46.93-.73-29.72-16.09-49.44-46.08-53.29-58.23,1.05-116.6-1.17-174.78-.73-6.07.05-13.17-.83-13.3,7.12.3,56.19-.3,112.85-.02,168.72.07,14.23-1.36,32.19-.02,45.82.52,5.26,2.16,6.94,7.66,7.57,9.78,1.14,32.24.94,42.27.04,2.45-.22,6.45-.43,7.37-3.18l-.39-118.77c1.79-.06,2.96,1.76,4.12,2.91,10.24,10.23,19.87,24.21,29.28,35.17,23.27,27.06,46.88,53.89,70.36,80.81,2.07,1.58,3.62,2.68,6.33,3.05,11.44,1.56,39.5.89,51.65.01,1.32-.11,5.81-.63,6.29-1.35,1.9-2.78-5.18-11.79-7.1-14.35-14.14-18.85-35.96-40.23-48.36-59.45-.55-.87-2.72-3.81-1.85-4.59.81-.73,18.41,0,21.68,0ZM1205.27,692.59c-30.77,2.64-65.9-1.31-97.37-.11-1.66.07-6.11,1.43-6.37,1.24-2.07-1.49-4.55-47.3-.29-49.22,5.31-2.4,80.5-3.09,107.5-.01,15.88,1.82,16.22,24.4,12.94,36.37-2.47,9-7.37,10.93-16.41,11.72Z"/>
  </g>
</svg>